<svg xmlns="http://www.w3.org/2000/svg" fill="none" viewBox="0 0 14 12"><path fill="#fff" d="M13.453 1.994a5.35 5.35 0 0 1-1.52.419A2.657 2.657 0 0 0 13.098.947a5.261 5.261 0 0 1-1.682.642 2.648 2.648 0 0 0-4.512 2.414 7.502 7.502 0 0 1-5.458-2.769 2.65 2.65 0 0 0 .824 3.538 2.586 2.586 0 0 1-1.204-.33v.032a2.65 2.65 0 0 0 2.125 2.598 2.665 2.665 0 0 1-1.195.044 2.652 2.652 0 0 0 2.475 1.84A5.308 5.308 0 0 1 .55 10.052a7.4 7.4 0 0 0 4.052 1.198c4.875 0 7.539-4.039 7.539-7.541 0-.115-.003-.23-.009-.342.517-.375.966-.84 1.321-1.373z"/></svg>