<svg xmlns="http://www.w3.org/2000/svg" fill="none" viewBox="0 0 12 12"><path fill="#fff" d="M6 4.178A1.826 1.826 0 0 0 4.178 6c0 1.003.818 1.822 1.822 1.822A1.826 1.826 0 0 0 7.822 6 1.826 1.826 0 0 0 6 4.178zM11.466 6c0-.755.007-1.503-.035-2.256-.043-.875-.242-1.651-.882-2.291C9.907.81 9.132.613 8.257.57 7.503.528 6.755.535 6.001.535 5.247.535 4.5.528 3.746.571c-.875.042-1.652.242-2.292.882-.641.64-.84 1.416-.882 2.291C.53 4.5.537 5.247.537 6c0 .753-.007 1.503.035 2.256.043.875.242 1.651.882 2.291.641.641 1.417.84 2.292.882.754.042 1.502.036 2.255.036.755 0 1.503.006 2.256-.036.875-.042 1.652-.242 2.292-.882.64-.641.84-1.416.882-2.291.043-.753.035-1.501.035-2.256zM6 8.804A2.8 2.8 0 0 1 3.196 6 2.8 2.8 0 0 1 6 3.196 2.8 2.8 0 0 1 8.804 6 2.8 2.8 0 0 1 6 8.804zm2.919-5.068a.654.654 0 1 1-.002-1.308.654.654 0 0 1 .002 1.308z"/></svg>